<svg width="24" height="24" viewBox="0 0 24 24" fill="none" xmlns="http://www.w3.org/2000/svg">
<path d="M2.78699 2.28005C2.88147 2.25211 2.98054 2.24306 3.07852 2.25343C3.1765 2.26379 3.27148 2.29336 3.35803 2.34044C3.44458 2.38752 3.52101 2.4512 3.58294 2.52783C3.64488 2.60446 3.69111 2.69254 3.71899 2.78705L4.26899 4.65005H18.924C20.764 4.65005 22.169 6.36705 21.639 8.16005L19.984 13.76C19.632 14.953 18.513 15.75 17.269 15.75H8.11299C6.86899 15.75 5.75099 14.953 5.39799 13.76L2.28099 3.21205C2.22483 3.02149 2.24657 2.81644 2.34144 2.6419C2.4363 2.46735 2.59654 2.33657 2.78699 2.28005ZM6.24999 19.5C6.24999 18.9033 6.48704 18.331 6.909 17.9091C7.33095 17.4871 7.90325 17.25 8.49999 17.25C9.09672 17.25 9.66902 17.4871 10.091 17.9091C10.5129 18.331 10.75 18.9033 10.75 19.5C10.75 20.0968 10.5129 20.6691 10.091 21.091C9.66902 21.513 9.09672 21.75 8.49999 21.75C7.90325 21.75 7.33095 21.513 6.909 21.091C6.48704 20.6691 6.24999 20.0968 6.24999 19.5ZM14.25 19.5C14.25 19.2046 14.3082 18.912 14.4213 18.639C14.5343 18.366 14.7001 18.118 14.909 17.9091C15.1179 17.7001 15.366 17.5344 15.6389 17.4213C15.9119 17.3082 16.2045 17.25 16.5 17.25C16.7955 17.25 17.088 17.3082 17.361 17.4213C17.634 17.5344 17.882 17.7001 18.091 17.9091C18.2999 18.118 18.4656 18.366 18.5787 18.639C18.6918 18.912 18.75 19.2046 18.75 19.5C18.75 20.0968 18.5129 20.6691 18.091 21.091C17.669 21.513 17.0967 21.75 16.5 21.75C15.9032 21.75 15.331 21.513 14.909 21.091C14.487 20.6691 14.25 20.0968 14.25 19.5Z" fill="#5F3600"/>
</svg>
