<svg width="24" height="21" viewBox="0 0 24 21" fill="none" xmlns="http://www.w3.org/2000/svg">
<g filter="url(#filter0_d_103_3)">
<path d="M6.62 7.79C8.06 10.62 10.38 12.93 13.21 14.38L15.41 12.18C15.68 11.91 16.08 11.82 16.43 11.94C17.55 12.31 18.76 12.51 20 12.51C20.55 12.51 21 12.96 21 13.51V17C21 17.55 20.55 18 20 18C10.61 18 3 10.39 3 1C3 0.45 3.45 0 4 0H7.5C8.05 0 8.5 0.45 8.5 1C8.5 2.25 8.7 3.45 9.07 4.57C9.18 4.92 9.1 5.31 8.82 5.59L6.62 7.79Z" fill="#42241B"/>
</g>
<defs>
<filter id="filter0_d_103_3" x="-1" y="0" width="26" height="26" filterUnits="userSpaceOnUse" color-interpolation-filters="sRGB">
<feFlood flood-opacity="0" result="BackgroundImageFix"/>
<feColorMatrix in="SourceAlpha" type="matrix" values="0 0 0 0 0 0 0 0 0 0 0 0 0 0 0 0 0 0 127 0" result="hardAlpha"/>
<feOffset dy="4"/>
<feGaussianBlur stdDeviation="2"/>
<feComposite in2="hardAlpha" operator="out"/>
<feColorMatrix type="matrix" values="0 0 0 0 0 0 0 0 0 0 0 0 0 0 0 0 0 0 0.25 0"/>
<feBlend mode="normal" in2="BackgroundImageFix" result="effect1_dropShadow_103_3"/>
<feBlend mode="normal" in="SourceGraphic" in2="effect1_dropShadow_103_3" result="shape"/>
</filter>
</defs>
</svg>
